<?xml version="1.0" encoding="iso-8859-1"?>

<!DOCTYPE svg PUBLIC "-//W3C//DTD SVG 1.1//EN" "http://www.w3.org/Graphics/SVG/1.1/DTD/svg11.dtd">
<!-- Uploaded to: SVG Repo, www.svgrepo.com, Generator: SVG Repo Mixer Tools -->
<svg version="1.1" id="_x34_" xmlns="http://www.w3.org/2000/svg" xmlns:xlink="http://www.w3.org/1999/xlink" 
	 viewBox="0 0 512 512"  xml:space="preserve">
<g>
	<g>
		<path style="fill:#FFFFFF;" d="M512,24.556v250.003c0,13.548-11.078,24.556-24.556,24.556H24.556
			c-2.187,0-4.375-0.282-6.421-0.917c-8.326-2.187-14.959-8.82-17.217-17.217C0.282,278.933,0,276.816,0,274.558V24.556
			C0,11.078,11.078,0,24.556,0h462.889c1.129,0,2.258,0.071,3.387,0.282c10.796,1.482,19.405,10.091,20.887,20.887
			C511.929,22.298,512,23.427,512,24.556z"/>
		<g>
			<g>
				<path style="fill:#676868;" d="M101.609,237.654c-0.564-1.27-1.341-2.399-2.258-3.246c-0.988-0.917-2.047-1.553-3.246-2.047
					c-1.199-0.494-2.469-0.706-3.74-0.706c-0.493,0-0.987,0-1.411,0.071c-0.494,0.071-0.988,0.211-1.482,0.353l7.974-14.395h-7.621
					l-8.114,15.1c-0.847,1.623-1.623,3.175-2.258,4.657c-0.635,1.481-0.988,3.034-0.988,4.657c0,1.693,0.353,3.246,0.917,4.587
					c0.635,1.341,1.481,2.469,2.54,3.387c1.129,0.917,2.399,1.623,3.81,2.117c1.482,0.423,3.035,0.706,4.728,0.706
					s3.246-0.283,4.728-0.777c1.482-0.493,2.752-1.199,3.81-2.117c1.059-0.917,1.905-2.046,2.541-3.387
					c0.564-1.341,0.917-2.893,0.917-4.657C102.457,240.406,102.174,238.924,101.609,237.654z M94.06,245.839
					c-0.988,0.847-2.187,1.27-3.599,1.27c-1.411,0-2.611-0.423-3.528-1.27c-0.988-0.917-1.411-2.187-1.411-3.811
					c0-1.623,0.423-2.893,1.411-3.74c0.917-0.917,2.117-1.341,3.528-1.341c1.482,0,2.752,0.423,3.599,1.341
					c0.917,0.917,1.341,2.187,1.341,3.74C95.4,243.652,94.977,244.922,94.06,245.839z"/>
				<path style="fill:#676868;" d="M126.659,217.685l-7.833,6.139v6.915l7.833-6.21v28.084h6.986v-34.928H126.659z"/>
				<path style="fill:#676868;" d="M174.783,241.605v-6.492h-6.774v6.492h-8.044l13.195-23.92h-7.691l-13.125,23.92v5.998h15.665
					v5.01h6.774v-5.01h3.457v-5.998H174.783z"/>
				<path style="fill:#676868;" d="M210.417,235.537c0.706-0.706,1.27-1.341,1.764-1.976c0.564-0.565,0.988-1.2,1.341-1.835
					c0.282-0.635,0.564-1.27,0.776-1.905c0.141-0.705,0.282-1.411,0.282-2.258c0-1.623-0.353-3.034-0.917-4.304
					c-0.564-1.199-1.341-2.258-2.399-3.175c-0.988-0.847-2.258-1.482-3.669-1.975c-1.411-0.494-3.034-0.706-4.728-0.706
					c-1.623,0-3.175,0.212-4.587,0.635c-1.411,0.494-2.681,1.129-3.74,2.046c-1.059,0.847-1.835,1.976-2.47,3.175
					c-0.564,1.27-0.847,2.752-0.847,4.304h6.986c0-0.847,0.141-1.552,0.423-2.117c0.283-0.565,0.635-1.059,1.059-1.341
					c0.423-0.353,0.988-0.635,1.482-0.776c0.564-0.141,1.129-0.212,1.693-0.212c1.552,0,2.681,0.423,3.458,1.199
					c0.847,0.777,1.199,1.835,1.199,3.175c0,0.777-0.141,1.553-0.423,2.117c-0.353,0.635-0.847,1.341-1.552,2.117l-14.324,15.1
					v5.786h23.356v-5.786h-14.889L210.417,235.537z"/>
				<path style="fill:#676868;" d="M251.413,235.96c-0.353-1.623-1.341-3.105-2.823-4.445c-0.776-0.705-1.764-1.27-2.964-1.693
					c-1.199-0.494-2.611-0.705-4.234-0.705c-1.27,0-2.469,0.212-3.457,0.564c-1.058,0.353-1.835,0.776-2.328,1.2v-7.48h15.523
					v-5.716h-21.874v19.687h6.421c0.283-0.706,0.706-1.341,1.411-1.905c0.706-0.635,1.764-0.917,3.246-0.917
					c1.693,0,2.964,0.565,3.599,1.623c0.705,1.058,1.058,2.611,1.058,4.657c0,1.129-0.071,2.117-0.282,3.034
					c-0.212,0.847-0.565,1.623-1.199,2.117c-0.847,0.777-1.976,1.129-3.317,1.129c-1.482,0-2.611-0.353-3.316-1.129
					c-0.777-0.706-1.2-1.764-1.411-3.175h-6.986c0.071,1.27,0.353,2.54,0.705,3.81c0.423,1.199,1.199,2.399,2.399,3.458
					c0.847,0.776,1.976,1.411,3.387,1.976c1.482,0.564,3.175,0.847,5.221,0.847c1.976,0,3.669-0.283,5.081-0.847
					c1.341-0.565,2.469-1.2,3.387-2.047c1.341-1.27,2.258-2.611,2.752-4.092c0.423-1.411,0.635-3.105,0.635-5.081
					C252.048,239.136,251.837,237.513,251.413,235.96z"/>
				<path style="fill:#676868;" d="M288.459,237.654c-0.565-1.27-1.341-2.399-2.258-3.246c-0.988-0.917-2.046-1.553-3.246-2.047
					c-1.199-0.494-2.469-0.706-3.74-0.706c-0.494,0-0.988,0-1.411,0.071c-0.494,0.071-0.988,0.211-1.482,0.353l7.973-14.395h-7.621
					l-8.114,15.1c-0.847,1.623-1.623,3.175-2.258,4.657c-0.635,1.481-0.988,3.034-0.988,4.657c0,1.693,0.353,3.246,0.917,4.587
					c0.635,1.341,1.482,2.469,2.54,3.387c1.129,0.917,2.399,1.623,3.811,2.117c1.482,0.423,3.034,0.706,4.728,0.706
					c1.694,0,3.246-0.283,4.728-0.777c1.482-0.493,2.752-1.199,3.811-2.117c1.058-0.917,1.905-2.046,2.54-3.387
					c0.565-1.341,0.917-2.893,0.917-4.657C289.305,240.406,289.023,238.924,288.459,237.654z M280.908,245.839
					c-0.988,0.847-2.187,1.27-3.599,1.27c-1.411,0-2.611-0.423-3.528-1.27c-0.988-0.917-1.411-2.187-1.411-3.811
					c0-1.623,0.423-2.893,1.411-3.74c0.917-0.917,2.117-1.341,3.528-1.341c1.553,0,2.752,0.423,3.599,1.341
					c0.917,0.917,1.341,2.187,1.341,3.74C282.249,243.652,281.826,244.922,280.908,245.839z"/>
				<path style="fill:#676868;" d="M326.633,239.559c-0.282-0.776-0.705-1.482-1.199-2.117c-0.494-0.635-0.988-1.2-1.553-1.693
					c-0.564-0.423-1.129-0.847-1.623-1.129c0.423-0.353,0.917-0.705,1.482-1.129c0.494-0.494,0.988-0.988,1.411-1.623
					c0.353-0.564,0.705-1.199,0.988-1.975c0.283-0.776,0.423-1.623,0.423-2.54c0-1.553-0.353-2.964-0.988-4.163
					c-0.565-1.199-1.411-2.258-2.47-3.105c-1.058-0.917-2.329-1.552-3.74-2.046c-1.411-0.423-2.964-0.635-4.587-0.635
					s-3.105,0.212-4.516,0.635c-1.411,0.494-2.681,1.129-3.74,2.046c-1.129,0.847-1.976,1.905-2.611,3.105
					c-0.635,1.199-0.917,2.611-0.917,4.163c0,0.917,0.141,1.764,0.423,2.54c0.211,0.776,0.565,1.411,0.988,1.975
					c0.423,0.635,0.847,1.129,1.411,1.623c0.494,0.423,0.988,0.776,1.482,1.129c-0.565,0.282-1.059,0.706-1.623,1.129
					c-0.565,0.493-1.059,1.058-1.553,1.693c-0.494,0.635-0.847,1.341-1.129,2.117c-0.353,0.847-0.494,1.764-0.494,2.893
					c0,1.694,0.353,3.175,0.988,4.445c0.635,1.341,1.482,2.399,2.611,3.317c1.129,0.847,2.399,1.552,3.951,1.976
					c1.482,0.423,3.034,0.706,4.728,0.706s3.317-0.283,4.798-0.706c1.482-0.423,2.823-1.129,3.881-1.976
					c1.129-0.917,2.047-1.976,2.681-3.317c0.635-1.27,0.988-2.752,0.988-4.445C327.127,241.323,326.915,240.406,326.633,239.559z
					 M311.391,224.388c0.917-0.847,2.046-1.27,3.387-1.27c1.411,0,2.54,0.423,3.387,1.27c0.917,0.847,1.411,1.905,1.411,3.175
					s-0.494,2.329-1.411,3.105c-0.847,0.847-1.976,1.27-3.387,1.27c-1.341,0-2.47-0.423-3.387-1.27
					c-0.917-0.776-1.411-1.835-1.411-3.105S310.474,225.235,311.391,224.388z M318.589,245.769c-1.058,0.917-2.258,1.341-3.81,1.341
					c-1.482,0-2.752-0.423-3.74-1.341c-1.059-0.917-1.553-2.047-1.553-3.458c0-1.341,0.494-2.47,1.553-3.457
					c0.988-0.917,2.258-1.341,3.74-1.341c1.553,0,2.752,0.423,3.81,1.341c0.988,0.988,1.482,2.117,1.482,3.457
					C320.07,243.722,319.576,244.851,318.589,245.769z"/>
				<path style="fill:#676868;" d="M340.181,217.685v11.219h6.703V223.4h10.161l-12.489,29.212h7.62l12.419-29.212v-5.716H340.181z"
					/>
				<path style="fill:#676868;" d="M400.652,223.541c-0.635-1.341-1.482-2.47-2.54-3.387c-1.058-0.917-2.329-1.553-3.81-2.046
					c-1.482-0.494-3.034-0.706-4.728-0.706c-1.694,0-3.246,0.212-4.728,0.706c-1.411,0.494-2.681,1.199-3.81,2.117
					c-1.059,0.988-1.905,2.117-2.47,3.458c-0.635,1.341-0.917,2.893-0.917,4.587c0,1.623,0.282,3.104,0.847,4.375
					c0.564,1.27,1.341,2.328,2.258,3.246c0.917,0.847,1.976,1.553,3.246,1.976c1.199,0.494,2.47,0.776,3.74,0.776
					c0.494,0,0.988-0.071,1.482-0.141c0.423-0.071,0.917-0.141,1.411-0.353l-7.974,14.465h7.55l8.185-15.1
					c0.847-1.623,1.623-3.175,2.258-4.657c0.565-1.552,0.917-3.105,0.917-4.657C401.57,226.435,401.288,224.882,400.652,223.541z
					 M393.173,232.009c-0.987,0.847-2.117,1.341-3.599,1.341c-1.482,0-2.681-0.494-3.598-1.411c-0.917-0.917-1.341-2.117-1.341-3.74
					c0-1.623,0.494-2.893,1.411-3.74c0.917-0.917,2.117-1.341,3.528-1.341c1.482,0,2.611,0.423,3.599,1.341
					c0.917,0.847,1.411,2.117,1.411,3.74C394.584,229.821,394.09,231.092,393.173,232.009z"/>
				<path style="fill:#676868;" d="M423.444,217.685l-7.833,6.139v6.915l7.833-6.21v28.084h7.056v-34.928H423.444z"/>
			</g>
			<rect x="457.577" y="39.981" style="fill:#676868;" width="24.924" height="219.176"/>
			<rect x="29.499" y="39.981" style="fill:#676868;" width="24.924" height="219.176"/>
			<rect x="73.607" y="39.981" style="fill:#676868;" width="12.008" height="155.085"/>
			<rect x="144.525" y="39.981" style="fill:#676868;" width="6.213" height="155.085"/>
			<rect x="203.817" y="39.981" style="fill:#676868;" width="23.908" height="155.085"/>
			<rect x="173.084" y="39.981" style="fill:#676868;" width="13.448" height="155.085"/>
			<rect x="351.624" y="39.981" style="fill:#676868;" width="5.517" height="155.085"/>
			<rect x="379.756" y="39.981" style="fill:#676868;" width="20" height="155.085"/>
			<rect x="241.398" y="39.981" style="fill:#676868;" width="15.411" height="155.085"/>
			<rect x="301.397" y="39.981" style="fill:#676868;" width="30.58" height="155.085"/>
			<rect x="267.624" y="39.981" style="fill:#676868;" width="18.852" height="155.085"/>
			<rect x="422.172" y="39.981" style="fill:#676868;" width="12.762" height="155.085"/>
			<rect x="97.805" y="39.981" style="fill:#676868;" width="27.73" height="155.085"/>
		</g>
	</g>
	<path style="opacity:0.07;fill:#040000;" d="M490.831,0.282C489.702,0.071,488.573,0,487.444,0h-81.887L106.443,299.114h381.001
		c13.477,0,24.556-11.008,24.556-24.556V24.556c0-1.129-0.071-2.258-0.282-3.387C510.236,10.373,501.627,1.764,490.831,0.282z"/>
</g>
</svg>