<?xml version="1.0" encoding="utf-8"?>
<!-- Uploaded to: SVG Repo, www.svgrepo.com, Generator: SVG Repo Mixer Tools -->
<svg width="800px" height="800px" viewBox="0 0 1024 1024" class="icon"  version="1.1" xmlns="http://www.w3.org/2000/svg"><path d="M687.7 833.8h-76.8c-16.6 0-30-13.4-30-30s13.4-30 30-30h76.8c16.6 0 30 13.4 30 30s-13.4 30-30 30zM480.7 833.8H136.8c-16.6 0-30-13.4-30-30s13.4-30 30-30h343.9c16.6 0 30 13.4 30 30s-13.4 30-30 30z" fill="#33CC99" /><path d="M880.8 931H207.9c-25.3 0-45.9-20.7-45.9-45.9 0-25.3 20.7-45.9 45.9-45.9h672.9c25.3 0 45.9 20.7 45.9 45.9S906 931 880.8 931z" fill="#FFB89A" /><path d="M703 122.7c20.9 0 40.6 8.2 55.5 23.2 14.9 14.9 23.2 34.7 23.2 55.5v2.8l0.3 2.8 57.7 611.8c-0.6 20-8.8 38.7-23.1 53.1-14.9 14.9-34.7 23.2-55.5 23.2H236c-20.9 0-40.6-8.2-55.5-23.2-14.4-14.4-22.6-33.2-23.1-53.2l54.7-612 0.2-2.7v-2.7c0-20.9 8.2-40.6 23.2-55.5 14.9-14.9 34.7-23.2 55.5-23.2h412m0-59.9H291c-76.3 0-138.7 62.4-138.7 138.7l-55 615c0 76.3 62.4 138.7 138.7 138.7h525c76.3 0 138.7-62.4 138.7-138.7l-58-615c0-76.3-62.4-138.7-138.7-138.7z" fill="#45484C" /><path d="M712.6 228.8c0-24.9-20.1-45-45-45s-45 20.1-45 45c0 13.5 6 25.6 15.4 33.9-0.3 1.6-0.4 3.3-0.4 5v95.9c0 23.5-9.2 45.7-26 62.5-16.8 16.8-39 26-62.5 26h-88.5c-23.5 0-45.7-9.2-62.5-26-16.8-16.8-26-39-26-62.5v-95.9c0-1.7-0.1-3.4-0.4-5 9.4-8.2 15.4-20.4 15.4-33.9 0-24.9-20.1-45-45-45s-45 20.1-45 45c0 13.5 6 25.6 15.4 33.9-0.3 1.6-0.4 3.3-0.4 5v95.9c0 81.9 66.6 148.6 148.6 148.6h88.5c81.9 0 148.6-66.6 148.6-148.6v-95.9c0-1.7-0.1-3.4-0.4-5 9.3-8.3 15.2-20.4 15.2-33.9z" fill="#45484C" /></svg>