<?xml version="1.0" encoding="utf-8"?>
<!-- Uploaded to: SVG Repo, www.svgrepo.com, Generator: SVG Repo Mixer Tools -->
<svg width="800px" height="800px" viewBox="0 0 1024 1024" class="icon"  version="1.1" xmlns="http://www.w3.org/2000/svg"><path d="M597.6 674.2c-16.6 0-30 13.4-30 30v40.6c0 16.6 13.4 30 30 30s30-13.4 30-30v-40.6c0-16.5-13.4-30-30-30zM597.1 645.4c13.7-9.3 17.3-27.9 8-41.7-24.5-36.1-65-57.7-108.3-57.7-72.1 0-130.8 58.7-130.8 130.8v123.4c0 16.6 13.4 30 30 30s30-13.4 30-30V676.8c0-39 31.7-70.8 70.8-70.8 23.4 0 45.4 11.7 58.7 31.3 9.3 13.8 27.9 17.4 41.6 8.1z" fill="#33CC99" /><path d="M934.1 362.3H172.8c-14.4 0-26.2-11.8-26.2-26.2V231.2c0-14.4 11.8-26.2 26.2-26.2h761.3c14.4 0 26.2 11.8 26.2 26.2v104.9c0.1 14.4-11.8 26.2-26.2 26.2z" fill="#FFB89A" /><path d="M817.9 847.6H171.1c-59.7 0-108.3-48.6-108.3-108.3v-261c0-16.6 13.4-30 30-30s30 13.4 30 30v261c0 26.6 21.7 48.3 48.3 48.3h646.7c26.6 0 48.3-21.7 48.3-48.3V487.6c0-16.6 13.4-30 30-30s30 13.4 30 30v251.7c0.1 59.7-48.5 108.3-108.2 108.3z" fill="#45484C" /><path d="M928 168c0-22.1-17.9-40-40-40H105.7c-22.1 0-40 17.9-40 40v158.4h9c-4.2 5.2-6.7 11.7-6.7 18.9 0 55.6 41.1 100.8 91.6 100.8 25 0 47.7-11.1 64.2-29 16.5 17.9 39.2 29 64.2 29 24.9 0 47.5-11 64-28.8 16.5 17.8 39.1 28.8 64 28.8 28 0 53.2-14 70-35.9 16.8 21.9 41.9 35.9 70 35.9 30.4 0 57.4-16.4 74-41.5 16.7 25.2 43.6 41.5 74 41.5 24.9 0 47.5-11 64-28.8 16.5 17.8 39.1 28.8 64 28.8 50.5 0 91.6-45.2 91.6-100.8 0-7.2-2.5-13.7-6.7-18.9h11V168z m-676.8 98.4V188h73.3v78.4h-73.3zM384.5 188h73.1v78.4h-73.1V188z m133.1 0h80.8v78.4h-80.8V188z m140.8 0h79.8v78.4h-79.8V188z m139.7 0H868v78.4h-69.8V188z m-672.4 0h65.5v78.4h-65.5V188z m33.9 198.1c-17.1 0-31.6-18.7-31.6-40.8 0-7.2-2.5-13.7-6.7-18.9h69.9c0 3.3 0.5 6.5 1.5 9.5-1 3-1.5 6.1-1.5 9.5 0 22.1-14.5 40.7-31.6 40.7z m128.5 0c-17.1 0-31.6-18.7-31.6-40.8 0-6.4-2-12.3-5.4-17.1 0-0.6 0.1-1.2 0.1-1.8h73.3c0 0.8 0 1.6 0.1 2.4-3.1 4.7-5 10.4-5 16.5 0 22.2-14.4 40.8-31.5 40.8z m159.6-40.8c0 22.1-14.5 40.8-31.6 40.8s-31.6-18.7-31.6-40.8c0-3.3-0.5-6.5-1.5-9.5 1-3 1.5-6.1 1.5-9.5h69.9c-4.2 5.3-6.7 11.9-6.7 19z m139.9 0c0 22.1-14.5 40.8-31.6 40.8s-31.6-18.7-31.6-40.8c0-7.2-2.5-13.7-6.7-18.9h76.6c-4.1 5.2-6.7 11.8-6.7 18.9z m116.5 40.8c-17.1 0-31.6-18.7-31.6-40.8 0-7.2-2.5-13.7-6.7-18.9h72.3v7.1c-1.6 3.6-2.4 7.6-2.4 11.8 0 22.2-14.4 40.8-31.6 40.8z m159.6-40.8c0 22.1-14.5 40.8-31.6 40.8s-31.6-18.7-31.6-40.8c0-4.2-0.9-8.2-2.4-11.8v-7.1h72.3c-4.1 5.2-6.7 11.8-6.7 18.9z" fill="#45484C" /></svg>