<?xml version="1.0" encoding="utf-8"?>
<!-- Uploaded to: SVG Repo, www.svgrepo.com, Generator: SVG Repo Mixer Tools -->
<svg width="800px" height="800px" viewBox="0 0 1024 1024" class="icon"  version="1.1" xmlns="http://www.w3.org/2000/svg"><path d="M699.4 214.1H424.5c-29 0-52.8-23.8-52.8-52.8V151c0-29 23.8-52.8 52.8-52.8h274.9c29 0 52.8 23.8 52.8 52.8v10.3c0 29-23.8 52.8-52.8 52.8z" fill="#FFB89A" /><path d="M770.1 128c-16.6 0-30 13.4-30 30s13.4 30 30 30c25.8 0 50.2 10.2 68.7 28.6 18.4 18.4 28.6 42.8 28.6 68.7v446.3h-71.1c-51 0-92.8 41.7-92.8 92.8v75.8h-451c-25.8 0-50.2-10.2-68.7-28.6-18.4-18.4-28.6-42.8-28.6-68.7V285.2c0-25.8 10.2-50.2 28.6-68.7 18.4-18.4 42.8-28.6 68.7-28.6 16.6 0 30-13.4 30-30s-13.4-30-30-30c-86.7 0-157.2 70.5-157.2 157.2v517.6c0 86.7 70.5 157.2 157.2 157.2h517.6c86.7 0 157.2-70.5 157.2-157.2V285.2c0.1-86.7-70.5-157.2-157.2-157.2z m68.7 743.5c-18.4 18.4-42.8 28.6-68.7 28.6h-32.5l129.7-120.5v23.3c0.1 25.8-10.1 50.2-28.5 68.6z" fill="#45484C" /><path d="M382.7 191.8H640c34.9 0 63.4-28.5 63.4-63.4S674.9 65 640 65H382.7c-34.9 0-63.4 28.5-63.4 63.4s28.6 63.4 63.4 63.4z m0-66.8H640c1.7 0 3.4 1.6 3.4 3.4 0 1.7-1.6 3.4-3.4 3.4H382.7c-1.7 0-3.4-1.6-3.4-3.4 0-1.7 1.7-3.4 3.4-3.4z" fill="#45484C" /><path d="M724.1 499.2h-33c-16.6 0-30 13.4-30 30s13.4 30 30 30h33c16.6 0 30-13.4 30-30s-13.4-30-30-30zM595.4 499.2h-53.3v-51c0-16.6-13.4-30-30-30s-30 13.4-30 30v51H319.3c-16.6 0-30 13.4-30 30s13.4 30 30 30h162.8v181.2c0 16.6 13.4 30 30 30s30-13.4 30-30V559.2h53.3c16.6 0 30-13.4 30-30s-13.4-30-30-30zM512.1 384.3c16.6 0 30-13.4 30-30v-26.4c0-16.6-13.4-30-30-30s-30 13.4-30 30v26.4c0 16.6 13.4 30 30 30z" fill="#33CC99" /></svg>